<svg id="Layer_1" data-name="Layer 1" xmlns="http://www.w3.org/2000/svg" viewBox="0 0 64 64"><defs><style>.cls-1{fill:#3c3c3c;}.cls-2{fill:#fff;}</style></defs><title>instagramIcon</title><rect class="cls-1" width="64" height="64"/><path class="cls-2" d="M32,18.88c4.27,0,4.78,0,6.47.09a8.87,8.87,0,0,1,3,.55,5.3,5.3,0,0,1,3,3,8.82,8.82,0,0,1,.55,3c.08,1.69.09,2.19.09,6.47s0,4.78-.09,6.47a8.82,8.82,0,0,1-.55,3,5.29,5.29,0,0,1-3,3,8.82,8.82,0,0,1-3,.55c-1.69.08-2.19.09-6.47.09s-4.78,0-6.47-.09a8.82,8.82,0,0,1-3-.55,5.29,5.29,0,0,1-3-3,8.82,8.82,0,0,1-.55-3c-.08-1.69-.09-2.19-.09-6.47s0-4.78.09-6.47a8.82,8.82,0,0,1,.55-3,5.3,5.3,0,0,1,3-3,8.87,8.87,0,0,1,3-.55c1.69-.08,2.19-.09,6.47-.09M32,16c-4.35,0-4.89,0-6.6.1a11.74,11.74,0,0,0-3.88.74,8.18,8.18,0,0,0-4.68,4.68,11.73,11.73,0,0,0-.74,3.88C16,27.11,16,27.65,16,32s0,4.89.1,6.6a11.73,11.73,0,0,0,.74,3.88,8.18,8.18,0,0,0,4.68,4.68,11.73,11.73,0,0,0,3.88.74c1.71.08,2.25.1,6.6.1s4.89,0,6.6-.1a11.73,11.73,0,0,0,3.88-.74,8.18,8.18,0,0,0,4.68-4.68,11.73,11.73,0,0,0,.74-3.88c.08-1.71.1-2.25.1-6.6s0-4.89-.1-6.6a11.73,11.73,0,0,0-.74-3.88,8.18,8.18,0,0,0-4.68-4.68,11.74,11.74,0,0,0-3.88-.74C36.89,16,36.35,16,32,16Z"/><path class="cls-2" d="M32,23.78A8.22,8.22,0,1,0,40.22,32,8.22,8.22,0,0,0,32,23.78Zm0,13.55A5.33,5.33,0,1,1,37.33,32,5.33,5.33,0,0,1,32,37.33Z"/><circle class="cls-2" cx="40.54" cy="23.46" r="1.92"/></svg>