<svg id="Layer_1" data-name="Layer 1" xmlns="http://www.w3.org/2000/svg" viewBox="0 0 64 64"><defs><style>.cls-1{fill:#c9201f;}.cls-2{fill:#fff;}</style></defs><title>youTubeIcon</title><rect class="cls-1" width="64" height="64"/><path class="cls-2" d="M51.19,24.17s-.38-2.7-1.56-3.89a5.6,5.6,0,0,0-3.92-1.66c-5.48-.4-13.7-.4-13.7-.4h0s-8.22,0-13.7.4a5.6,5.6,0,0,0-3.92,1.66c-1.17,1.19-1.56,3.89-1.56,3.89a59.26,59.26,0,0,0-.39,6.34v3a59.25,59.25,0,0,0,.39,6.34s.38,2.7,1.56,3.89c1.49,1.56,3.45,1.51,4.32,1.67,3.13.3,13.32.39,13.32.39s8.23,0,13.71-.41a5.61,5.61,0,0,0,3.92-1.66c1.17-1.19,1.56-3.89,1.56-3.89a59.25,59.25,0,0,0,.39-6.34v-3A59.26,59.26,0,0,0,51.19,24.17ZM28,37.08v-11L38.54,31.6Z"/></svg>